<?xml version="1.0"?>
<svg xmlns="http://www.w3.org/2000/svg" height="512px" viewBox="1 -16 479.99952 479" width="512px"><path d="m41.945312 103.535156c-3.84375-2.179687-8.726562-.828125-10.90625 3.015625-41.386718 73.183594-41.386718 162.703125 0 235.886719 1.398438 2.507812 4.035157 4.074219 6.90625 4.105469 2.871094.03125 5.539063-1.480469 6.988282-3.960938 1.449218-2.476562 1.460937-5.542969.027344-8.03125-38.613282-68.289062-38.613282-151.824219 0-220.113281 2.175781-3.84375.828124-8.726562-3.015626-10.902344zm0 0" fill="#c81d25"/><path d="m209.015625 424.496094c3.648437 14.125 16.390625 24 30.984375 24s27.335938-9.875 30.984375-24zm0 0" fill="#c81d25"/><path d="m377.832031 352.871094c-1.230469-2.746094-2.398437-5.464844-3.535156-8.289063-9.476563-23.605469-14.328125-48.8125-14.296875-74.246093v-117.839844c.007812-29.195313-10.613281-57.390625-29.878906-79.320313-.148438-.121093-.285156-.25-.417969-.386719-1.871094-2.214843-3.304687-3.710937-4.800781-5.199218-15.253906-15.164063-34.261719-26.003906-55.078125-31.414063-4.855469-1.222656-9.78125-2.144531-14.753907-2.753906-14.988281-1.839844-30.191406-.90625-44.847656 2.753906-23.042968 5.898438-43.804687 18.542969-59.613281 36.320313-19.703125 21.988281-30.601563 50.472656-30.609375 80v117.839844c.03125 25.464843-4.835938 50.703124-14.335938 74.335937-1.054687 2.734375-2.265624 5.453125-3.496093 8.199219l-.566407 1.222656-25.097656 54.402344h326.992188zm0 0" fill="#c81d25"/><path d="m218.871094 18.183594c2.449218-.378906 4.90625-.691406 7.367187-.9375 1.183594-.113282 2.363281-.238282 3.546875-.320313 3-.222656 6.007813-.351562 9.015625-.382812.398438 0 .800781-.046875 1.199219-.046875s.800781.046875 1.167969.046875c3.03125 0 6.054687.160156 9.070312.382812 1.167969.082031 2.320313.199219 3.488281.320313 2.496094.246094 4.984376.558594 7.464844.945312.671875.101563 1.359375.144532 2.03125.253906-2.753906-10.570312-12.300781-17.945312-23.222656-17.945312s-20.46875 7.375-23.222656 17.945312c.6875-.117187 1.398437-.160156 2.09375-.261718zm0 0" fill="#c81d25"/><path d="m73.601562 310.894531c2.742188-.003906 5.296876-1.417969 6.757813-3.742187 1.460937-2.324219 1.625-5.238282.441406-7.714844-11.171875-23.398438-16.914062-49.015625-16.800781-74.941406-.066406-25.960938 5.671875-51.605469 16.800781-75.058594 1.886719-3.996094.179688-8.765625-3.816406-10.65625-3.996094-1.886719-8.769531-.179688-10.65625 3.816406-12.132813 25.59375-18.394531 53.574219-18.328125 81.898438-.105469 28.316406 6.1875 56.296875 18.398438 81.847656 1.328124 2.773438 4.125 4.542969 7.203124 4.550781zm0 0" fill="#c81d25"/><path d="m448.960938 106.550781c-2.195313-3.808593-7.050782-5.132812-10.878907-2.96875-3.824219 2.167969-5.183593 7.015625-3.042969 10.855469 38.613282 68.289062 38.613282 151.824219 0 220.113281-1.433593 2.488281-1.421874 5.554688.027344 8.03125 1.449219 2.480469 4.117188 3.992188 6.988282 3.960938 2.871093-.03125 5.507812-1.597657 6.90625-4.105469 41.386718-73.183594 41.386718-162.703125 0-235.886719zm0 0" fill="#c81d25"/><path d="m403.054688 138.78125c-3.996094 1.886719-5.707032 6.660156-3.816407 10.65625 11.113281 23.457031 16.839844 49.101562 16.761719 75.058594.113281 25.925781-5.628906 51.542968-16.800781 74.941406-1.449219 2.601562-1.335938 5.789062.292969 8.277344 1.628906 2.492187 4.507812 3.871094 7.46875 3.582031 2.964843-.289063 5.519531-2.195313 6.640624-4.953125 12.210938-25.550781 18.5-53.53125 18.398438-81.847656.078125-28.320313-6.167969-56.300782-18.289062-81.898438-1.886719-3.996094-6.660157-5.707031-10.65625-3.816406zm0 0" fill="#c81d25"/></svg>
